<svg width="21" height="20" viewBox="0 0 21 20" fill="none" xmlns="http://www.w3.org/2000/svg">
<g id="Iconly/Light outline/Wallet">
<g id="Wallet">
<path id="Vector" d="M14.688 0.5C17.8978 0.5 20.5 3.16116 20.5 6.44374V13.5563C20.5 16.8388 17.8978 19.5 14.688 19.5H6.31204C3.10219 19.5 0.5 16.8388 0.5 13.5563V6.44374C0.5 3.16116 3.10219 0.5 6.31204 0.5H14.688ZM14.688 1.98651H6.31204C3.90498 1.98651 1.95358 3.98213 1.95358 6.44374V13.5563C1.95358 16.0179 3.90498 18.0135 6.31204 18.0135H14.688C17.095 18.0135 19.0464 16.0179 19.0464 13.5563L19.046 13.279L15.8499 13.2798C14.0084 13.2787 12.5159 11.7531 12.5147 9.86949C12.5147 8.04914 13.9101 6.56244 15.6673 6.46431L15.8504 6.45916L19.046 6.459L19.0464 6.44374C19.0464 4.05454 17.2081 2.10431 14.8991 1.99165L14.688 1.98651ZM19.046 7.945L15.8508 7.94567C14.8109 7.94632 13.9683 8.80743 13.9683 9.86904C13.9689 10.8811 14.7329 11.7102 15.7033 11.7874L15.8504 11.7933L19.046 11.793V7.945ZM16.2942 9.06518C16.6956 9.06518 17.021 9.39795 17.021 9.80844C17.021 10.1847 16.7475 10.4957 16.3928 10.5449L16.2942 10.5517H15.9921C15.5907 10.5517 15.2653 10.2189 15.2653 9.80844C15.2653 9.43215 15.5388 9.12118 15.8935 9.07196L15.9921 9.06518H16.2942ZM10.8539 4.99736C11.2553 4.99736 11.5807 5.33013 11.5807 5.74062C11.5807 6.1169 11.3073 6.42788 10.9525 6.47709L10.8539 6.48388H5.62203C5.22063 6.48388 4.89524 6.15111 4.89524 5.74062C4.89524 5.36434 5.16866 5.05337 5.5234 5.00415L5.62203 4.99736H10.8539Z" fill="#ABBBC2"/>
</g>
</g>
</svg>
