<svg width="20" height="20" viewBox="0 0 20 20" fill="none" xmlns="http://www.w3.org/2000/svg">
<g id="Iconly/Light outline/Home">
<g id="Home">
<path id="Vector" d="M7.73024 0.788355C9.00024 -0.220645 10.7802 -0.260645 12.0892 0.668355L12.2502 0.788355L18.3392 5.65935C19.0092 6.17835 19.4202 6.94936 19.4902 7.78835L19.5002 7.98935V16.0984C19.5002 18.1884 17.8492 19.8884 15.7802 19.9984H13.7902C12.8392 19.9794 12.0702 19.2394 12.0002 18.3094L11.9902 18.1684V15.3094C11.9902 14.9984 11.7592 14.7394 11.4502 14.6884L11.3602 14.6784H8.68924C8.37024 14.6884 8.11024 14.9184 8.07024 15.2184L8.06024 15.3094V18.1594C8.06024 18.2184 8.04924 18.2884 8.04024 18.3384L8.03024 18.3594L8.01924 18.4284C7.90024 19.2794 7.20024 19.9284 6.33024 19.9894L6.20024 19.9984H4.41024C2.32024 19.9984 0.610244 18.3594 0.500244 16.2984V7.98935C0.509244 7.13835 0.880244 6.34835 1.50024 5.79835L7.73024 0.788355ZM11.3802 1.87835C10.6202 1.26835 9.54025 1.23935 8.74024 1.76835L8.58924 1.87835L2.50924 6.77936C2.16024 7.03835 1.95024 7.42836 1.90024 7.83836L1.88924 7.99835V16.0984C1.88924 17.4284 2.92924 18.5184 4.25024 18.5984H6.20024C6.42024 18.5984 6.61024 18.4494 6.63924 18.2394L6.66024 18.0594L6.67024 18.0084V15.3094C6.67024 14.2394 7.49024 13.3694 8.54024 13.2884H11.3602C12.4292 13.2884 13.2992 14.1094 13.3802 15.1594V18.1684C13.3802 18.3784 13.5302 18.5594 13.7302 18.5984H15.5892C16.9292 18.5984 18.0192 17.5694 18.0992 16.2584L18.1102 16.0984V7.99835C18.0992 7.56936 17.9202 7.16835 17.6102 6.86935L17.4802 6.75835L11.3802 1.87835Z" fill="#EA7C69"/>
</g>
</g>
</svg>
