<svg width="104" height="104" viewBox="0 0 104 104" fill="none" xmlns="http://www.w3.org/2000/svg">
<g filter="url(#filter0_d_10951_3021)">
<rect x="24" y="16" width="56" height="56" rx="8" fill="#EA7C69"/>
<path d="M49.7304 34.7884C51.0004 33.7794 52.7804 33.7394 54.0894 34.6684L54.2504 34.7884L60.3394 39.6594C61.0094 40.1784 61.4204 40.9494 61.4904 41.7884L61.5004 41.9894V50.0984C61.5004 52.1884 59.8494 53.8884 57.7804 53.9984H55.7904C54.8394 53.9794 54.0704 53.2394 54.0004 52.3094L53.9904 52.1684V49.3094C53.9904 48.9984 53.7594 48.7394 53.4504 48.6884L53.3604 48.6784H50.6894C50.3704 48.6884 50.1104 48.9184 50.0704 49.2184L50.0604 49.3094V52.1594C50.0604 52.2184 50.0494 52.2884 50.0404 52.3384L50.0304 52.3594L50.0194 52.4284C49.9004 53.2794 49.2004 53.9284 48.3304 53.9894L48.2004 53.9984H46.4104C44.3204 53.9984 42.6104 52.3594 42.5004 50.2984V41.9894C42.5094 41.1384 42.8804 40.3484 43.5004 39.7984L49.7304 34.7884ZM53.3804 35.8784C52.6204 35.2684 51.5404 35.2394 50.7404 35.7684L50.5894 35.8784L44.5094 40.7794C44.1604 41.0384 43.9504 41.4284 43.9004 41.8384L43.8894 41.9984V50.0984C43.8894 51.4284 44.9294 52.5184 46.2504 52.5984H48.2004C48.4204 52.5984 48.6104 52.4494 48.6394 52.2394L48.6604 52.0594L48.6704 52.0084V49.3094C48.6704 48.2394 49.4904 47.3694 50.5404 47.2884H53.3604C54.4294 47.2884 55.2994 48.1094 55.3804 49.1594V52.1684C55.3804 52.3784 55.5304 52.5594 55.7304 52.5984H57.5894C58.9294 52.5984 60.0194 51.5694 60.0994 50.2584L60.1104 50.0984V41.9984C60.0994 41.5694 59.9204 41.1684 59.6104 40.8694L59.4804 40.7584L53.3804 35.8784Z" fill="white"/>
</g>
<defs>
<filter id="filter0_d_10951_3021" x="0" y="0" width="104" height="104" filterUnits="userSpaceOnUse" color-interpolation-filters="sRGB">
<feFlood flood-opacity="0" result="BackgroundImageFix"/>
<feColorMatrix in="SourceAlpha" type="matrix" values="0 0 0 0 0 0 0 0 0 0 0 0 0 0 0 0 0 0 127 0" result="hardAlpha"/>
<feOffset dy="8"/>
<feGaussianBlur stdDeviation="12"/>
<feColorMatrix type="matrix" values="0 0 0 0 0.917647 0 0 0 0 0.486275 0 0 0 0 0.411765 0 0 0 0.32 0"/>
<feBlend mode="normal" in2="BackgroundImageFix" result="effect1_dropShadow_10951_3021"/>
<feBlend mode="normal" in="SourceGraphic" in2="effect1_dropShadow_10951_3021" result="shape"/>
</filter>
</defs>
</svg>
