<svg width="25" height="24" viewBox="0 0 25 24" fill="none" xmlns="http://www.w3.org/2000/svg">
<g id="Icon / Line / Paypal">
<path id="Vector" d="M18 7.2C19.7 8.2 20.5 10 20.5 12C20.5 14.5 18 16.5 15.5 16.5H12.9L12.3 20.1C12.2532 20.3293 12.1276 20.5349 11.9449 20.6811C11.7621 20.8272 11.5339 20.9047 11.3 20.9H8.6C8.52501 20.9015 8.45064 20.8861 8.38239 20.855C8.31415 20.8239 8.25378 20.7778 8.20577 20.7202C8.15775 20.6626 8.12331 20.5949 8.105 20.5222C8.08669 20.4494 8.08498 20.3735 8.1 20.3L8.3 18.9M10.5 13H13C15.5 13 18 10.5 18 8C18 5 16.1 3 13 3H7.5C7 3 6.5 3.5 6.5 4L4.5 18C4.5 18.5 5 19 5.5 19H8.3L9.5 14C9.6 13.4 9.9 13 10.5 13Z" stroke="#ABBBC2" stroke-width="1.5" stroke-linecap="round" stroke-linejoin="round"/>
</g>
</svg>
