<svg width="12" height="14" viewBox="0 0 12 14" fill="none" xmlns="http://www.w3.org/2000/svg">
<g id="Iconly/Light outline/Notification">
<g id="Notification">
<path id="Vector" d="M7.7388 12.1271C7.93652 12.2881 7.96786 12.5809 7.80879 12.7811C7.6912 12.929 7.55532 13.0615 7.41131 13.1701C6.92623 13.5507 6.3095 13.7233 5.69703 13.6503C5.08401 13.5773 4.52483 13.2642 4.14322 12.7793C3.98509 12.5784 4.0178 12.2858 4.21628 12.1257C4.41476 11.9657 4.70384 11.9988 4.86197 12.1997C5.09211 12.4921 5.43129 12.682 5.80443 12.7265C6.1781 12.771 6.55399 12.6658 6.8552 12.4295C6.94402 12.3625 7.02384 12.2847 7.09277 12.198C7.25184 11.9978 7.54108 11.9661 7.7388 12.1271ZM1.43491 4.99987L1.44312 4.60265C1.44899 4.43274 1.45807 4.27503 1.47139 4.12068C1.67119 1.96308 3.73059 0.333374 5.97669 0.333374H6.02424C8.26912 0.333374 10.3291 1.96194 10.5357 4.12362C10.5476 4.26103 10.5527 4.38309 10.5542 4.55475L10.5548 5.07992C10.5553 5.12776 10.5561 5.16983 10.5574 5.20906L10.5635 5.33989L10.5932 5.46463C10.687 5.81206 10.8519 6.13687 11.0777 6.41885L11.1781 6.53701L11.2193 6.58982C11.49 6.9945 11.6447 7.46538 11.6668 7.97253L11.6662 8.2414C11.6473 8.84202 11.4268 9.42211 11.0227 9.90549C10.4876 10.4734 9.76241 10.8263 8.99172 10.8972C7.00149 11.1133 4.99349 11.1133 3.00881 10.8978C2.2328 10.8231 1.50979 10.4713 0.951249 9.88159C0.539375 9.37946 0.320439 8.74723 0.334099 8.10833L0.334663 7.94949C0.358458 7.46372 0.512187 6.99327 0.779738 6.58684L0.824519 6.52923C1.13699 6.18666 1.35062 5.76741 1.44332 5.31541L1.43329 5.35601L1.43491 4.99987ZM6.02424 1.26361H5.97669C4.17784 1.26361 2.53885 2.56062 2.38661 4.20456C2.37882 4.29489 2.3726 4.38809 2.36775 4.48617L2.35704 4.7971L2.35269 5.40995L2.3431 5.50449C2.21645 6.12205 1.92502 6.69399 1.49969 7.16028L1.53254 7.12221L1.47379 7.21943C1.36375 7.41771 1.29276 7.63304 1.26471 7.84553L1.25306 7.97253L1.25296 8.11832C1.24395 8.54287 1.38741 8.95713 1.63596 9.26208C2.01937 9.66569 2.53805 9.91805 3.10128 9.97226C5.02635 10.1813 6.96863 10.1813 8.90107 9.97153C9.45822 9.9202 9.97653 9.66802 10.3391 9.28448C10.6135 8.9554 10.7585 8.53981 10.7479 8.10243L10.7484 7.99347C10.7343 7.67908 10.6342 7.37421 10.4584 7.1115L10.4686 7.12841L10.3766 7.02061C10.0597 6.62944 9.82949 6.17571 9.70129 5.68935L9.65804 5.50549L9.64945 5.44371C9.64296 5.35346 9.63919 5.27325 9.63718 5.1768L9.63537 4.57371C9.63413 4.42034 9.62998 4.3171 9.62065 4.20888C9.46309 2.56054 7.82258 1.26361 6.02424 1.26361Z" fill="#ABBBC2"/>
</g>
</g>
</svg>
