<svg width="38" height="38" viewBox="0 0 38 38" fill="none" xmlns="http://www.w3.org/2000/svg">
<rect width="38" height="38" rx="8" fill="#252836"/>
<circle cx="19" cy="19" r="9" stroke="#9288E0" stroke-width="1.8"/>
<path d="M17.459 16.9411C17.459 16.347 17.916 15.9749 18.5362 15.9031V17.9988C18.471 17.9857 18.4122 17.9661 18.3534 17.9465C17.7593 17.7507 17.459 17.4112 17.459 16.9411ZM20.7233 21.015C20.7233 21.6548 20.2337 22.0792 19.5417 22.1379V19.8855C19.5874 19.8986 19.6331 19.9116 19.6722 19.9182C20.4034 20.1206 20.7233 20.4796 20.7233 21.015ZM19.5547 24.3772L19.5482 23.5481C21.337 23.3783 22.473 22.3925 22.473 20.8387C22.473 19.2588 21.4088 18.5929 20.0966 18.3121L19.5417 18.1946V15.9161C20.2337 16.0271 20.6189 16.5494 20.6385 17.0717H22.3098C22.2837 15.7137 21.2195 14.6822 19.5678 14.5059V13.6572H18.5101V14.4994C16.9302 14.643 15.6898 15.5114 15.6898 17.0782C15.6898 18.5602 16.7605 19.3175 17.9748 19.5852L18.5362 19.7093V22.1379C17.7006 22.0269 17.2632 21.5242 17.2305 20.9236H15.52C15.5331 22.1314 16.3426 23.4045 18.5036 23.5611L18.4971 24.3772H19.5547Z" fill="#9288E0"/>
</svg>
