<svg width="38" height="38" viewBox="0 0 38 38" fill="none" xmlns="http://www.w3.org/2000/svg">
<rect width="38" height="38" rx="8" fill="#252836"/>
<path d="M21.9857 9C25.0482 9 27 10.435 27 13.2577V27.3309C27 27.7736 26.8285 28.1982 26.5232 28.5112C26.2179 28.8242 25.8038 29 25.3608 29C25.0965 28.9957 24.8368 28.9291 24.5863 28.7971L18.974 25.6635L13.3844 28.8037C12.7112 29.1624 11.8954 28.9969 11.3843 28.3975L11.2863 28.2719L11.1926 28.1174C11.0704 27.8782 11.0045 27.613 11 27.3309V13.4343C11 10.4993 12.9091 9 16.0143 9H21.9857ZM21.9857 10.4477H16.0143C13.6193 10.4477 12.412 11.3958 12.412 13.4343L12.412 27.3189C12.4127 27.3631 12.4235 27.4065 12.4117 27.3897L12.4492 27.4519C12.5137 27.5421 12.6349 27.5715 12.7196 27.5265L18.3068 24.3883C18.7233 24.1576 19.225 24.1576 19.6435 24.3894L25.2463 27.5173C25.2887 27.5397 25.3355 27.5517 25.372 27.5523C25.4293 27.5523 25.4842 27.529 25.5247 27.4875C25.5652 27.446 25.5879 27.3897 25.5879 27.3309V13.2577C25.5879 11.3579 24.35 10.4477 21.9857 10.4477ZM22.4079 15.3166C22.7978 15.3166 23.1139 15.6407 23.1139 16.0405C23.1139 16.407 22.8483 16.7098 22.5037 16.7578L22.4079 16.7644H15.5404C15.1505 16.7644 14.8344 16.4403 14.8344 16.0405C14.8344 15.674 15.1 15.3712 15.4446 15.3232L15.5404 15.3166H22.4079Z" fill="#FFB572"/>
</svg>
