<svg width="18" height="18" viewBox="0 0 18 18" fill="none" xmlns="http://www.w3.org/2000/svg">
<rect width="18" height="18" rx="9" fill="#88E091" fill-opacity="0.24"/>
<path d="M8.99994 14.25C8.75473 14.25 8.55208 14.0704 8.52 13.8375L8.51558 13.7727L8.51583 5.38275L5.45258 8.4139C5.26384 8.60069 4.95716 8.60134 4.7676 8.41535C4.59528 8.24628 4.57906 7.98116 4.71935 7.79402L4.76613 7.74039L8.65645 3.89039L8.66665 3.88095C8.67711 3.87118 8.68801 3.86186 8.69932 3.85302L8.65645 3.89039C8.67519 3.87184 8.6951 3.85513 8.71594 3.84025C8.72903 3.83126 8.74262 3.82253 8.75666 3.81448C8.7879 3.79629 8.82059 3.7822 8.85421 3.7718C8.86606 3.7683 8.87816 3.76504 8.89044 3.76225C8.89982 3.75997 8.90934 3.7581 8.91891 3.75652C8.92928 3.75493 8.93965 3.75355 8.95012 3.75249C8.96063 3.7513 8.97138 3.75057 8.98213 3.75018C8.98809 3.7501 8.994 3.75 8.99994 3.75L9.01602 3.75014C9.02795 3.75054 9.03986 3.75136 9.05174 3.75262L8.99994 3.75C9.02759 3.75 9.05471 3.75229 9.0811 3.75667C9.09313 3.75863 9.1052 3.76112 9.11719 3.76406C9.12671 3.76641 9.13606 3.76901 9.14529 3.77187C9.15626 3.77524 9.16731 3.77909 9.17823 3.78336C9.18951 3.78778 9.20053 3.79257 9.21133 3.79774C9.2196 3.80165 9.22812 3.80604 9.23653 3.81069C9.25231 3.81946 9.26712 3.82875 9.28135 3.83878C9.28358 3.84036 9.28604 3.84212 9.28848 3.84392C9.3101 3.85984 9.32917 3.87633 9.34683 3.89419L13.2338 7.74036C13.4226 7.92713 13.422 8.22933 13.2324 8.41533C13.0601 8.58442 12.791 8.59927 12.6017 8.46025L12.5474 8.41393L9.48475 5.38333L9.48429 13.7727C9.48429 14.0363 9.26744 14.25 8.99994 14.25Z" fill="#50D1AA"/>
</svg>
