<svg width="38" height="38" viewBox="0 0 38 38" fill="none" xmlns="http://www.w3.org/2000/svg">
<rect width="38" height="38" rx="8" fill="#252836"/>
<path d="M16.5915 21.4563L16.9113 21.4576C21.5557 21.4981 24.1835 22.4361 24.1835 24.9983C24.1835 27.5061 21.665 28.4736 17.2236 28.5546L16.5915 28.5603C11.7472 28.5603 9.00049 27.6394 9.00049 25.0183C9.00049 22.3937 11.7581 21.4563 16.5915 21.4563ZM16.5915 22.9563C12.5741 22.9563 10.5005 23.6612 10.5005 25.0183C10.5005 26.3667 12.5692 27.0603 16.5915 27.0603C20.6091 27.0603 22.6835 26.3552 22.6835 24.9983C22.6835 23.6505 20.6129 22.9563 16.5915 22.9563ZM24.5872 20.7481C25.1677 20.7876 25.7449 20.8708 26.2996 20.9938C27.4877 21.2301 28.371 21.6713 28.7757 22.5204C29.0745 23.1491 29.0745 23.8806 28.7757 24.5092C28.3733 25.3563 27.4992 25.7942 26.3044 26.04C25.8987 26.1234 25.5021 25.8622 25.4187 25.4565C25.3352 25.0507 25.5965 24.6542 26.0022 24.5707C26.771 24.4126 27.2827 24.1562 27.4209 23.8654C27.5261 23.6441 27.5261 23.3856 27.4213 23.165C27.2822 22.8732 26.7678 22.6163 25.9912 22.4616C25.4938 22.3515 24.991 22.279 24.4854 22.2446C24.0721 22.2165 23.7599 21.8587 23.788 21.4455C23.8161 21.0322 24.1739 20.72 24.5872 20.7481ZM16.5915 9.49976C19.4395 9.49976 21.7265 11.7864 21.7265 14.6338C21.7265 17.482 19.4397 19.7688 16.5915 19.7688C13.7434 19.7688 11.4575 17.4821 11.4575 14.6338C11.4575 11.7862 13.7436 9.49976 16.5915 9.49976ZM23.0202 10.5694C25.2551 10.5694 27.0672 12.3818 27.0672 14.6164C27.0672 16.8516 25.2554 18.6634 23.0202 18.6634C22.606 18.6634 22.2702 18.3276 22.2702 17.9134C22.2702 17.4991 22.606 17.1634 23.0202 17.1634C24.427 17.1634 25.5672 16.0231 25.5672 14.6164C25.5672 13.2102 24.4266 12.0694 23.0202 12.0694C22.606 12.0694 22.2702 11.7336 22.2702 11.3194C22.2702 10.9051 22.606 10.5694 23.0202 10.5694ZM16.5915 10.9998C14.5721 10.9998 12.9575 12.6146 12.9575 14.6338C12.9575 16.6538 14.5719 18.2688 16.5915 18.2688C18.6113 18.2688 20.2265 16.6535 20.2265 14.6338C20.2265 12.6148 18.6111 10.9998 16.5915 10.9998Z" fill="#65B0F6"/>
</svg>
